<svg xmlns="http://www.w3.org/2000/svg" height="48" viewBox="0 96 960 960" width="48"><path fill="current" d="m238.261 547.913 244.261-393.609 244.022 393.609H238.261Zm475.537 454.627q-78.774 0-133.188-54.832-54.414-54.836-54.414-134.471 0-78.802 54.386-133.378 54.386-54.576 133.23-54.576 79.677 0 134.422 54.548 54.744 54.548 54.744 133.92 0 79.372-54.786 134.082-54.787 54.707-134.394 54.707Zm-615.32-26.518V644.283h331.5v331.739h-331.5ZM714.05 925q47.059 0 79.222-31.852t32.163-79.065q0-47.213-32.248-79.235-32.247-32.022-79.306-32.022-47.058 0-78.72 32.013-31.661 32.013-31.661 79.285 0 47.172 31.746 79.024Q666.992 925 714.05 925Zm-538.028-26.522h176.652V721.826H176.022v176.652ZM377.913 470.37h209.5L482.522 300.674 377.913 470.37Zm105.37 0ZM352.674 721.826Zm361.913 92.326Z"/></svg>