<svg xmlns="http://www.w3.org/2000/svg" height="48" viewBox="0 96 960 960" width="48"><path fill="current" d="M218.87 795.326q63.043-44.043 126.491-67.304 63.447-23.261 134.788-23.261 71.342 0 134.979 23.444 63.638 23.445 128.002 67.121 42.522-55.522 59.642-107.914Q819.891 635.021 819.891 576q0-144.624-97.621-242.258-97.621-97.633-242.228-97.633-144.607 0-242.27 97.633Q140.109 431.376 140.109 576q0 59.239 17.506 111.454 17.507 52.215 61.255 107.872Zm260.984-179.239q-61.935 0-104.318-42.548-42.384-42.548-42.384-104.326 0-61.778 42.529-104.3t104.465-42.522q61.935 0 104.318 42.668 42.384 42.667 42.384 104.445 0 61.779-42.529 104.181-42.529 42.402-104.465 42.402Zm.474 377.109q-85.806 0-161.435-32.714-75.628-32.713-132.905-90.257-57.277-57.544-90.23-132.915-32.954-75.372-32.954-162.096 0-84.214 33.21-159.986 33.211-75.772 90.205-133.335 56.993-57.562 132.411-90.445 75.419-32.883 162.156-32.883 84.214 0 159.986 33.33 75.772 33.33 133.098 90.359 57.326 57.029 90.445 132.858 33.12 75.83 33.12 160.56 0 85.806-32.883 161.461-32.883 75.655-90.445 132.648-57.563 56.994-133.306 90.204-75.743 33.211-160.473 33.211ZM480 915.891q53.239 0 103.543-14.641 50.305-14.641 102.305-54.402-51.587-35.206-103.098-52.744-51.511-17.539-102.75-17.539t-102.424 17.522q-51.185 17.522-102.185 53.064 51 39.064 101.185 53.902Q426.761 915.891 480 915.891Zm0-371.848q32.49 0 53.647-21.021 21.157-21.022 21.157-53.663 0-32.642-21.157-53.783T480 394.435q-32.49 0-53.647 21.141-21.157 21.141-21.157 53.783 0 32.641 21.157 53.663Q447.51 544.043 480 544.043Zm0-74.804Zm.239 376.609Z"/></svg>